<?xml version="1.0" encoding="UTF-8"?>
<svg version="1.1" xmlns="http://www.w3.org/2000/svg" width="242" height="35">
<path d="M0 0 C79.86 0 159.72 0 242 0 C242 11.55 242 23.1 242 35 C162.14 35 82.28 35 0 35 C0 23.45 0 11.9 0 0 Z " fill="#EEF4F7" transform="translate(0,0)"/>
<path d="M0 0 C7.28421548 -0.02312916 14.5684231 -0.04091801 21.85266781 -0.05181217 C25.23471813 -0.05703975 28.6167434 -0.06413511 31.9987793 -0.07543945 C35.88329777 -0.08834267 39.76780597 -0.09322924 43.65234375 -0.09765625 C44.87211411 -0.10281754 46.09188446 -0.10797882 47.34861755 -0.11329651 C49.03024742 -0.11340981 49.03024742 -0.11340981 50.74584961 -0.11352539 C51.73846298 -0.115746 52.73107635 -0.11796661 53.75376892 -0.12025452 C56 0 56 0 57 1 C57.10023409 3.26774891 57.13081341 5.53863163 57.1328125 7.80859375 C57.13376923 8.49051285 57.13472595 9.17243195 57.13571167 9.87501526 C57.13639339 11.32007947 57.13453969 12.76514672 57.13037109 14.21020508 C57.12503084 16.42471193 57.13031205 18.63901519 57.13671875 20.85351562 C57.13605781 22.25520878 57.13477631 23.65690181 57.1328125 25.05859375 C57.13168457 26.34048584 57.13055664 27.62237793 57.12939453 28.94311523 C57 32 57 32 56 34 C48.18547248 34.02526563 40.37095542 34.04283105 32.55639648 34.05493164 C29.89558519 34.05997383 27.23477668 34.06680736 24.57397461 34.07543945 C20.75894484 34.08751009 16.94395156 34.09322929 13.12890625 34.09765625 C11.33206139 34.10539818 11.33206139 34.10539818 9.49891663 34.11329651 C7.84731789 34.11340981 7.84731789 34.11340981 6.16235352 34.11352539 C4.7000808 34.11685631 4.7000808 34.11685631 3.20826721 34.12025452 C1 34 1 34 0 33 C-0.08843793 30.55169574 -0.11528752 28.13179401 -0.09765625 25.68359375 C-0.0962413 24.95253922 -0.09482635 24.22148468 -0.09336853 23.46827698 C-0.08775408 21.12464368 -0.07519922 18.78110461 -0.0625 16.4375 C-0.05748686 14.85221492 -0.05292363 13.26692834 -0.04882812 11.68164062 C-0.03777997 7.7877239 -0.02050572 3.89387795 0 0 Z " fill="#066FCD" transform="translate(123,1)"/>
<path d="M0 0 C17.16 0 34.32 0 52 0 C52 11.22 52 22.44 52 34 C34.84 34 17.68 34 0 34 C0 22.78 0 11.56 0 0 Z " fill="#1E2371" transform="translate(1,1)"/>
<path d="M0 0 C17.16 0 34.32 0 52 0 C52.020625 5.424375 52.04125 10.84875 52.0625 16.4375 C52.071604 18.15122803 52.08070801 19.86495605 52.09008789 21.63061523 C52.09300716 22.98160727 52.09555569 24.33260019 52.09765625 25.68359375 C52.10277222 26.39100708 52.10788818 27.09842041 52.11315918 27.82727051 C52.11347032 29.55192617 52.06225761 31.27646838 52 33 C50.37245356 34.62754644 48.55861677 34.12737077 46.3125 34.12939453 C45.31476563 34.13254669 44.31703125 34.13569885 43.2890625 34.13894653 C42.20367187 34.1369223 41.11828125 34.13489807 40 34.1328125 C38.89398438 34.13376923 37.78796875 34.13472595 36.6484375 34.13571167 C34.30468692 34.13639367 31.96093447 34.13453804 29.6171875 34.13037109 C26.01558212 34.12502314 22.41410147 34.13031547 18.8125 34.13671875 C16.54166639 34.13605797 14.27083286 34.13477682 12 34.1328125 C10.91460937 34.13483673 9.82921875 34.13686096 8.7109375 34.13894653 C7.71320313 34.13579437 6.71546875 34.13264221 5.6875 34.12939453 C4.80449219 34.12859894 3.92148438 34.12780334 3.01171875 34.12698364 C1 34 1 34 0 33 C-0.0884283 30.55196233 -0.11535972 28.13155206 -0.09765625 25.68359375 C-0.09664917 25.03588013 -0.09564209 24.3881665 -0.09460449 23.7208252 C-0.08935843 21.29303221 -0.07539725 18.86526439 -0.0625 16.4375 C-0.041875 11.013125 -0.02125 5.58875 0 0 Z " fill="#080403" transform="translate(62,1)"/>
<path d="M0 0 C17.16 0 34.32 0 52 0 C52 2.64 52 5.28 52 8 C50.94039062 8.02578125 49.88078125 8.0515625 48.7890625 8.078125 C47.40099999 8.1343978 46.01298075 8.19174533 44.625 8.25 C43.92632812 8.26417969 43.22765625 8.27835938 42.5078125 8.29296875 C40.22282354 8.36035782 40.22282354 8.36035782 37 9 C35.43516506 10.91388341 35.43516506 10.91388341 35 13 C34.34 12.01 33.68 11.02 33 10 C30.80545319 9.42006301 30.80545319 9.42006301 28.375 9.3125 C27.55773437 9.24675781 26.74046875 9.18101563 25.8984375 9.11328125 C25.27195313 9.07589844 24.64546875 9.03851563 24 9 C24 11.64 24 14.28 24 17 C28.39314793 15.98839152 28.39314793 15.98839152 31.375 12.875 C31.684375 11.946875 31.684375 11.946875 32 11 C32.99 12.65 33.98 14.3 35 16 C36.32 15.34 37.64 14.68 39 14 C39 15.32 39 16.64 39 18 C41.31 18 43.62 18 46 18 C45.85546875 20.33984375 45.85546875 20.33984375 45 23 C40.9753914 25.36854956 36.43227953 26.56602721 32 28 C30.8965625 28.39703125 29.793125 28.7940625 28.65625 29.203125 C19.01522006 32.40178447 10.02333427 32.40911568 0 32 C0 27.05 0 22.1 0 17 C0.99 16.67 1.98 16.34 3 16 C3 14.35 3 12.7 3 11 C3.99 11.33 4.98 11.66 6 12 C6 12.99 6 13.98 6 15 C6.66 15 7.32 15 8 15 C8 15.66 8 16.32 8 17 C8.66 17 9.32 17 10 17 C10 14.36 10 11.72 10 9 C9.34 9 8.68 9 8 9 C7.67 9.66 7.34 10.32 7 11 C4.69 10.34 2.38 9.68 0 9 C0 6.03 0 3.06 0 0 Z " fill="#F8F6F4" transform="translate(189,2)"/>
<path d="M0 0 C17.82 0 35.64 0 54 0 C54 11.22 54 22.44 54 34 C36.18 34 18.36 34 0 34 C0 22.78 0 11.56 0 0 Z M1 1 C1 3.97 1 6.94 1 10 C3.64 10.66 6.28 11.32 9 12 C9 11.34 9 10.68 9 10 C9.66 10 10.32 10 11 10 C11 12.64 11 15.28 11 18 C10.34 18 9.68 18 9 18 C9 17.34 9 16.68 9 16 C8.34 16 7.68 16 7 16 C6.67 14.68 6.34 13.36 6 12 C5.34 12 4.68 12 4 12 C4 13.65 4 15.3 4 17 C3.01 17.33 2.02 17.66 1 18 C1 22.95 1 27.9 1 33 C12.44449403 33.46712221 22.08529649 32.92725313 33 29 C34.2271875 28.60296875 35.454375 28.2059375 36.71875 27.796875 C41.50361056 26.21347606 41.50361056 26.21347606 46 24 C46.94637216 21.43272192 46.94637216 21.43272192 47 19 C44.69 19 42.38 19 40 19 C39.505 17.02 39.505 17.02 39 15 C38.01 15.66 37.02 16.32 36 17 C34.68 15.35 33.36 13.7 32 12 C31.773125 12.804375 31.54625 13.60875 31.3125 14.4375 C30.6628125 15.7059375 30.6628125 15.7059375 30 17 C27.375 17.8125 27.375 17.8125 25 18 C25 15.36 25 12.72 25 10 C26.45945288 10.08708669 27.91765868 10.19526907 29.375 10.3125 C30.59316406 10.39951172 30.59316406 10.39951172 31.8359375 10.48828125 C34 11 34 11 36 14 C36.17273438 13.35546875 36.34546875 12.7109375 36.5234375 12.046875 C38 10 38 10 41.4765625 9.390625 C42.858573 9.32418219 44.2416781 9.2780748 45.625 9.25 C46.33140625 9.22035156 47.0378125 9.19070313 47.765625 9.16015625 C49.50980047 9.08944643 51.25490827 9.04245965 53 9 C53 6.36 53 3.72 53 1 C35.84 1 18.68 1 1 1 Z " fill="#C8C7C6" transform="translate(188,1)"/>
<path d="M0 0 C0.85464844 0.02707031 1.70929688 0.05414062 2.58984375 0.08203125 C3.81380859 0.13423828 3.81380859 0.13423828 5.0625 0.1875 C7.68882242 0.1875 10.31662639 0.10658862 12.9375 -0.0625 C17.28461857 -0.0706103 19.70565505 1.39012921 23.0625 4.1875 C25.74177341 8.20641012 25.21851248 10.42911923 25.0625 15.1875 C24.4025 15.1875 23.7425 15.1875 23.0625 15.1875 C23.02125 15.785625 22.98 16.38375 22.9375 17 C22.0625 19.1875 22.0625 19.1875 19.4375 20.9375 C14.91442944 22.61271132 11.15259484 23.04497481 6.625 21.1875 C6.109375 20.8575 5.59375 20.5275 5.0625 20.1875 C5.0625 20.8475 5.0625 21.5075 5.0625 22.1875 C1.66048924 22.54421569 -1.54390059 22.67526505 -4.9375 22.1875 C-8.66839554 19.14187099 -10.07274475 16.82320633 -10.9375 12.125 C-10.9375 7.15795794 -9.62451458 5.2950017 -6.63671875 1.5625 C-4.33807052 -0.29755558 -2.91856558 -0.11849815 0 0 Z " fill="#EE981B" transform="translate(80.9375,6.8125)"/>
<path d="M0 0 C12.87 0 25.74 0 39 0 C39 2.64 39 5.28 39 8 C39.99 8.66 40.98 9.32 42 10 C42 12.31 42 14.62 42 17 C35.4 17 28.8 17 22 17 C22 16.34 22 15.68 22 15 C21.34 15 20.68 15 20 15 C20 15.66 20 16.32 20 17 C15.71 17 11.42 17 7 17 C7 14.36 7 11.72 7 9 C14.59 9 22.18 9 30 9 C28.89732294 7.67112965 28.89732294 7.67112965 26.13256836 7.88647461 C24.88096924 7.89171143 23.62937012 7.89694824 22.33984375 7.90234375 C21.67537735 7.9037587 21.01091095 7.90517365 20.3263092 7.90663147 C18.19666101 7.91224482 16.06711661 7.92479946 13.9375 7.9375 C12.49674631 7.94251329 11.05599097 7.94707649 9.61523438 7.95117188 C6.07678898 7.96221855 2.53840461 7.97949208 -1 8 C-0.67 5.36 -0.34 2.72 0 0 Z " fill="#75B2DF" transform="translate(131,9)"/>
<path d="M0 0 C17.16 0 34.32 0 52 0 C52 2.64 52 5.28 52 8 C50.94039062 8.02578125 49.88078125 8.0515625 48.7890625 8.078125 C47.40099999 8.1343978 46.01298075 8.19174533 44.625 8.25 C43.92632812 8.26417969 43.22765625 8.27835938 42.5078125 8.29296875 C40.22282354 8.36035782 40.22282354 8.36035782 37 9 C35.43516506 10.91388341 35.43516506 10.91388341 35 13 C34.34 12.01 33.68 11.02 33 10 C30.42189701 9.69528794 28.13600582 9.58142229 25.5625 9.625 C24.88123047 9.61339844 24.19996094 9.60179687 23.49804688 9.58984375 C20.44381519 9.60779222 18.4899933 9.62158933 16.02734375 11.5234375 C15.68832031 12.01070312 15.34929687 12.49796875 15 13 C14.34 12.34 13.68 11.68 13 11 C13.66 11 14.32 11 15 11 C15 10.34 15 9.68 15 9 C13.68 9 12.36 9 11 9 C11 10.32 11 11.64 11 13 C11.99 13.33 12.98 13.66 14 14 C13.01 14.33 12.02 14.66 11 15 C10.67 15.66 10.34 16.32 10 17 C10 14.36 10 11.72 10 9 C9.34 9 8.68 9 8 9 C7.67 9.66 7.34 10.32 7 11 C4.69 10.34 2.38 9.68 0 9 C0 6.03 0 3.06 0 0 Z " fill="#F8F8F8" transform="translate(189,2)"/>
<path d="M0 0 C37.29 0 74.58 0 113 0 C113 0.33 113 0.66 113 1 C96.17 1 79.34 1 62 1 C62.33 12.22 62.66 23.44 63 35 C59.7 35 56.4 35 53 35 C53 23.78 53 12.56 53 1 C35.84 1 18.68 1 1 1 C1 12.22 1 23.44 1 35 C0.67 35 0.34 35 0 35 C0 23.45 0 11.9 0 0 Z " fill="#E2E3E8" transform="translate(0,0)"/>
<path d="M0 0 C3.63 0 7.26 0 11 0 C11 11.55 11 23.1 11 35 C7.37 35 3.74 35 0 35 C0 23.45 0 11.9 0 0 Z " fill="#E8EDF0" transform="translate(113,0)"/>
<path d="M0 0 C0.87785156 -0.00773438 1.75570312 -0.01546875 2.66015625 -0.0234375 C3.78744141 0.17378906 3.78744141 0.17378906 4.9375 0.375 C5.5975 1.365 6.2575 2.355 6.9375 3.375 C5.9475 3.87 5.9475 3.87 4.9375 4.375 C3.88773036 7.52430893 3.83618405 9.76314456 3.875 13.0625 C3.88402344 14.05636719 3.89304687 15.05023438 3.90234375 16.07421875 C3.91394531 16.83347656 3.92554687 17.59273437 3.9375 18.375 C4.5975 18.375 5.2575 18.375 5.9375 18.375 C5.6075 19.695 5.2775 21.015 4.9375 22.375 C1.53548924 22.73171569 -1.66890059 22.86276505 -5.0625 22.375 C-8.79339554 19.32937099 -10.19774475 17.01070633 -11.0625 12.3125 C-11.0625 7.3513091 -9.75649256 5.48865235 -6.76953125 1.76171875 C-4.4608144 -0.1137835 -2.94209731 -0.02599791 0 0 Z " fill="#DA0219" transform="translate(81.0625,6.625)"/>
<path d="M0 0 C2.64 0 5.28 0 8 0 C7.67 1.65 7.34 3.3 7 5 C7.66 4.67 8.32 4.34 9 4 C9.33 2.68 9.66 1.36 10 0 C18.25 0 26.5 0 35 0 C35 2.31 35 4.62 35 7 C28.4 7 21.8 7 15 7 C15 6.34 15 5.68 15 5 C14.34 5 13.68 5 13 5 C13 5.66 13 6.32 13 7 C8.71 7 4.42 7 0 7 C0 4.69 0 2.38 0 0 Z " fill="#83BEE5" transform="translate(138,19)"/>
<path d="M0 0 C0.99 0 1.98 0 3 0 C3 4.29 3 8.58 3 13 C-8.22 13 -19.44 13 -31 13 C-31 12.67 -31 12.34 -31 12 C-30.16339844 11.78085937 -29.32679688 11.56171875 -28.46484375 11.3359375 C-21.7373996 9.50321185 -15.22564578 7.45259975 -8.75 4.875 C-8.10667725 4.62153809 -7.46335449 4.36807617 -6.80053711 4.10693359 C-4.0586492 2.99012752 -2.1152954 2.1152954 0 0 Z " fill="#ED8227" transform="translate(238,21)"/>
<path d="M0 0 C6.93 0.495 6.93 0.495 14 1 C14 1.66 14 2.32 14 3 C12.35 3 10.7 3 9 3 C9 3.99 9 4.98 9 6 C11.475 6.99 11.475 6.99 14 8 C13.25 12.75 13.25 12.75 11 15 C8.31160615 15.26991906 5.70858064 15.08737357 3 15 C2.67 14.34 2.34 13.68 2 13 C1.67 13.66 1.34 14.32 1 15 C0.01 15 -0.98 15 -2 15 C-1.85737588 13.4372038 -1.71074489 11.87477304 -1.5625 10.3125 C-1.48128906 9.44238281 -1.40007813 8.57226562 -1.31640625 7.67578125 C-1.01156391 5.09779359 -0.50910741 2.54553705 0 0 Z " fill="#383D7D" transform="translate(22,10)"/>
<path d="M0 0 C0.33 0 0.66 0 1 0 C1 2.97 1 5.94 1 9 C1.9075 9 2.815 9 3.75 9 C6.16666667 9 8.58333333 9 11 9 C11 11.64 11 14.28 11 17 C10.34 17 9.68 17 9 17 C9 16.34 9 15.68 9 15 C8.34 15 7.68 15 7 15 C6.67 14.01 6.34 13.02 6 12 C5.34 11.67 4.68 11.34 4 11 C4 12.65 4 14.3 4 16 C4.66 16.33 5.32 16.66 6 17 C4.35 17 2.7 17 1 17 C1 21.95 1 26.9 1 32 C18.16 32 35.32 32 53 32 C53 27.38 53 22.76 53 18 C53.33 18 53.66 18 54 18 C54 22.95 54 27.9 54 33 C36.18 33 18.36 33 0 33 C0 22.11 0 11.22 0 0 Z " fill="#AB9380" transform="translate(188,2)"/>
<path d="M0 0 C11.22 0 22.44 0 34 0 C33.67 0.66 33.34 1.32 33 2 C31.68 1.67 30.36 1.34 29 1 C28.67 1.99 28.34 2.98 28 4 C27.67 3.01 27.34 2.02 27 1 C25.02 1.33 23.04 1.66 21 2 C20.67 3.65 20.34 5.3 20 7 C13.07 7 6.14 7 -1 7 C-0.01 6.67 0.98 6.34 2 6 C2.33 5.01 2.66 4.02 3 3 C3.33 3.66 3.66 4.32 4 5 C4.66 4.67 5.32 4.34 6 4 C6.33 3.01 6.66 2.02 7 1 C6.34 1 5.68 1 5 1 C4.67 1.66 4.34 2.32 4 3 C3.01 2.34 2.02 1.68 1 1 C0.67 1.99 0.34 2.98 0 4 C0 2.68 0 1.36 0 0 Z " fill="#82BBE3" transform="translate(135,10)"/>
<path d="M0 0 C1.65 0 3.3 0 5 0 C5.50286934 1.9575985 6.0022099 3.91610377 6.5 5.875 C6.7784375 6.96554688 7.056875 8.05609375 7.34375 9.1796875 C8 12 8 12 8 14 C6.68 14 5.36 14 4 14 C4 13.34 4 12.68 4 12 C2.35 12 0.7 12 -1 12 C-1 12.66 -1 13.32 -1 14 C-2.32 14 -3.64 14 -5 14 C-4.54636829 12.41531323 -4.08688548 10.83230076 -3.625 9.25 C-3.36976562 8.36828125 -3.11453125 7.4865625 -2.8515625 6.578125 C-2.0790066 4.23919428 -1.16374324 2.16557438 0 0 Z " fill="#E2E3ED" transform="translate(41,11)"/>
<path d="M0 0 C2 1.375 2 1.375 4 4 C4.69586271 8.40957209 4.9575526 12.42097176 2.59765625 16.3125 C2.07042969 16.869375 1.54320313 17.42625 1 18 C0.34 18 -0.32 18 -1 18 C-1 17.34 -1 16.68 -1 16 C-1.66 16 -2.32 16 -3 16 C-4.41021456 11.59307951 -4.7364685 6.99898592 -3.125 2.625 C-2 1 -2 1 0 0 Z " fill="#F85A04" transform="translate(88,9)"/>
<path d="M0 0 C1.98 0 3.96 0 6 0 C6.66 1.98 7.32 3.96 8 6 C8.99 4.02 9.98 2.04 11 0 C11.99 0 12.98 0 14 0 C13.34580901 5.06998019 11.1453591 9.41990777 9 14 C7.68 14 6.36 14 5 14 C4.80664062 13.32453125 4.61328125 12.6490625 4.4140625 11.953125 C4.15367188 11.06109375 3.89328125 10.1690625 3.625 9.25 C3.36976562 8.36828125 3.11453125 7.4865625 2.8515625 6.578125 C2.0790066 4.23919428 1.16374324 2.16557438 0 0 Z " fill="#DFE1EC" transform="translate(6,11)"/>
<path d="M0 0 C12.87 0 25.74 0 39 0 C39 0.33 39 0.66 39 1 C27.45 1 15.9 1 4 1 C5.32 1.66 6.64 2.32 8 3 C8.99 2.67 9.98 2.34 11 2 C10.67 3.32 10.34 4.64 10 6 C6.3791799 7.01382963 2.72188582 7.49897691 -1 8 C-0.67 5.36 -0.34 2.72 0 0 Z " fill="#4997D5" transform="translate(131,9)"/>
<path d="M0 0 C1.45742463 -0.08096803 2.91612807 -0.13917774 4.375 -0.1875 C5.18710938 -0.22230469 5.99921875 -0.25710938 6.8359375 -0.29296875 C7.55007812 -0.19628906 8.26421875 -0.09960938 9 0 C9.66 0.99 10.32 1.98 11 3 C11.33 2.01 11.66 1.02 12 0 C12.66 0 13.32 0 14 0 C13.50168276 3.68754757 12.89932357 5.60490662 10 8 C9.34 6.68 8.68 5.36 8 4 C7.608125 4.66 7.21625 5.32 6.8125 6 C5 8 5 8 2.3125 8.25 C1.549375 8.1675 0.78625 8.085 0 8 C-1.125 2.25 -1.125 2.25 0 0 Z " fill="#DD6927" transform="translate(213,11)"/>
<path d="M0 0 C0 0.66 0 1.32 0 2 C-1.65 2 -3.3 2 -5 2 C-5.18175781 2.59167969 -5.36351562 3.18335938 -5.55078125 3.79296875 C-6.95667057 8.212508 -8.37527181 12.12540125 -11 16 C-11.66 15.67 -12.32 15.34 -13 15 C-12.34 14.34 -11.68 13.68 -11 13 C-10.3574765 10.93125966 -10.3574765 10.93125966 -10 9 C-12.475 8.01 -12.475 8.01 -15 7 C-15 6.01 -15 5.02 -15 4 C-13.35 4 -11.7 4 -10 4 C-10 3.34 -10 2.68 -10 2 C-11.98 2 -13.96 2 -16 2 C-16 1.67 -16 1.34 -16 1 C-10.59255982 0.22750855 -5.46137814 -0.09752461 0 0 Z " fill="#313579" transform="translate(46,9)"/>
<path d="M0 0 C1.134375 0.020625 2.26875 0.04125 3.4375 0.0625 C3.4375 0.7225 3.4375 1.3825 3.4375 2.0625 C1.7875 2.0625 0.1375 2.0625 -1.5625 2.0625 C-1.5625 3.0525 -1.5625 4.0425 -1.5625 5.0625 C0.9125 6.0525 0.9125 6.0525 3.4375 7.0625 C2.6875 11.8125 2.6875 11.8125 0.4375 14.0625 C-3.1875 14.1875 -3.1875 14.1875 -6.5625 14.0625 C-6.5625 13.0725 -6.5625 12.0825 -6.5625 11.0625 C-4.5825 11.0625 -2.6025 11.0625 -0.5625 11.0625 C-1.408125 10.340625 -2.25375 9.61875 -3.125 8.875 C-5.5625 6.0625 -5.5625 6.0625 -5.4375 3.3125 C-4.04793832 -0.2606586 -4.14066059 0.07264317 0 0 Z " fill="#DFE0EB" transform="translate(32.5625,10.9375)"/>
<path d="M0 0 C3.96 0 7.92 0 12 0 C11.67 2.64 11.34 5.28 11 8 C10.34 8 9.68 8 9 8 C9 7.34 9 6.68 9 6 C8.34 6 7.68 6 7 6 C7 6.66 7 7.32 7 8 C4.69 8 2.38 8 0 8 C0 5.36 0 2.72 0 0 Z " fill="#828283" transform="translate(228,11)"/>
<path d="M0 0 C0.33 0.66 0.66 1.32 1 2 C4.3 2 7.6 2 11 2 C11 2.33 11 2.66 11 3 C3.08 3 -4.84 3 -13 3 C-13 4.98 -13 6.96 -13 9 C-14.32 9 -15.64 9 -17 9 C-17 7.35 -17 5.7 -17 4 C-19.97 3.505 -19.97 3.505 -23 3 C-23 2.67 -23 2.34 -23 2 C-15.41 2 -7.82 2 0 2 C0 1.34 0 0.68 0 0 Z " fill="#4A95D4" transform="translate(161,16)"/>
<path d="M0 0 C1.32 0 2.64 0 4 0 C3.69147815 1.958964 3.3780582 3.91715713 3.0625 5.875 C2.88847656 6.96554688 2.71445312 8.05609375 2.53515625 9.1796875 C2 12 2 12 1 14 C0.01 14 -0.98 14 -2 14 C-1.85795259 12.41632253 -1.71119847 10.83306682 -1.5625 9.25 C-1.48128906 8.36828125 -1.40007813 7.4865625 -1.31640625 6.578125 C-1.03761535 4.30649548 -0.61209423 2.20148177 0 0 Z " fill="#DCDDE9" transform="translate(22,11)"/>
<path d="M0 0 C3 0 6 0 9 0 C9 2.64 9 5.28 9 8 C8.34 8 7.68 8 7 8 C7 7.34 7 6.68 7 6 C6.34 6 5.68 6 5 6 C4.67 5.01 4.34 4.02 4 3 C3.34 2.67 2.68 2.34 2 2 C2 3.65 2 5.3 2 7 C2.66 7.33 3.32 7.66 4 8 C2.68 8 1.36 8 0 8 C0 5.36 0 2.72 0 0 Z " fill="#606060" transform="translate(190,11)"/>
<path d="M0 0 C0 2.31 0 4.62 0 7 C-2.97 7 -5.94 7 -9 7 C-9 5.02 -9 3.04 -9 1 C-8.01 1.33 -7.02 1.66 -6 2 C-5.67 1.67 -5.34 1.34 -5 1 C-1.44444444 0 -1.44444444 0 0 0 Z " fill="#59A1D9" transform="translate(173,19)"/>
<path d="M0 0 C1.32 0 2.64 0 4 0 C4 0.99 4 1.98 4 3 C4.4125 2.484375 4.825 1.96875 5.25 1.4375 C5.8275 0.963125 6.405 0.48875 7 0 C9.1875 0.3125 9.1875 0.3125 11 1 C10.01 1.33 9.02 1.66 8 2 C8 3.32 8 4.64 8 6 C8.99 6.66 9.98 7.32 11 8 C10.113125 7.814375 9.22625 7.62875 8.3125 7.4375 C5.14821189 7.01957516 3.05160358 7.19222258 0 8 C0 7.34 0 6.68 0 6 C0.66 5.67 1.32 5.34 2 5 C1.34 4.67 0.68 4.34 0 4 C0 2.68 0 1.36 0 0 Z " fill="#626262" transform="translate(200,11)"/>
<path d="M0 0 C2.97 0 5.94 0 9 0 C8.67 0.99 8.34 1.98 8 3 C8.33 3.99 8.66 4.98 9 6 C5.7 6 2.4 6 -1 6 C-0.67 4.02 -0.34 2.04 0 0 Z " fill="#589ED6" transform="translate(154,20)"/>
<path d="M0 0 C2 2 2 2 2.125 5.125 C2.08375 6.07375 2.0425 7.0225 2 8 C3.65 8 5.3 8 7 8 C7 8.33 7 8.66 7 9 C3.7 9 0.4 9 -3 9 C-3.33 6.69 -3.66 4.38 -4 2 C-2.68 1.34 -1.36 0.68 0 0 Z " fill="#DAD1CC" transform="translate(211,11)"/>
<path d="M0 0 C1.32 0 2.64 0 4 0 C4.97798721 3.79568461 4.92653069 6.5005999 4.0625 10.3125 C3.86785156 11.19550781 3.67320313 12.07851563 3.47265625 12.98828125 C3.31667969 13.65214844 3.16070313 14.31601562 3 15 C1.68 14.34 0.36 13.68 -1 13 C0.33333333 9 1.66666667 5 3 1 C2.01 0.67 1.02 0.34 0 0 Z " fill="#424683" transform="translate(17,10)"/>
<path d="M0 0 C0.66 0.33 1.32 0.66 2 1 C-2.57928118 5.82029598 -2.57928118 5.82029598 -6.625 6.33203125 C-9.10024766 6.31445137 -11.53484453 6.21923319 -14 6 C-11.80291879 3.80291879 -10.48226667 3.35322321 -7.5625 2.4375 C-6.78003906 2.18871094 -5.99757812 1.93992187 -5.19140625 1.68359375 C-4.10666016 1.34521484 -4.10666016 1.34521484 -3 1 C-2.01 0.67 -1.02 0.34 0 0 Z " fill="#EF903D" transform="translate(226,27)"/>
<path d="M0 0 C1.65 0 3.3 0 5 0 C5.125 7.625 5.125 7.625 4 11 C3.01 10.67 2.02 10.34 1 10 C1.66 9.67 2.32 9.34 3 9 C3 7.35 3 5.7 3 4 C2.01 4 1.02 4 0 4 C0 2.68 0 1.36 0 0 Z " fill="#EFF1F6" transform="translate(41,11)"/>
<path d="M0 0 C0.33 0 0.66 0 1 0 C1.66 3.96 2.32 7.92 3 12 C1.68 12 0.36 12 -1 12 C-1 11.34 -1 10.68 -1 10 C-2.65 10 -4.3 10 -6 10 C-6 9.67 -6 9.34 -6 9 C-4.35 9 -2.7 9 -1 9 C-0.67 6.03 -0.34 3.06 0 0 Z " fill="#CBCDDF" transform="translate(46,13)"/>
<path d="M0 0 C2 1.5 2 1.5 4 4 C4.35800135 6.75871627 4.18660165 9.20097524 4 12 C3.34 12 2.68 12 2 12 C1.67 12.99 1.34 13.98 1 15 C1.01160156 14.16855469 1.02320312 13.33710938 1.03515625 12.48046875 C1.04417969 11.39378906 1.05320312 10.30710937 1.0625 9.1875 C1.07410156 8.10855469 1.08570312 7.02960937 1.09765625 5.91796875 C1.13624766 2.93487831 1.13624766 2.93487831 0 0 Z " fill="#C5801E" transform="translate(102,10)"/>
<path d="M0 0 C4.29 0 8.58 0 13 0 C11.68 0.33 10.36 0.66 9 1 C9 1.66 9 2.32 9 3 C6 2 6 2 5 1 C5 1.99 5 2.98 5 4 C5.66 4.33 6.32 4.66 7 5 C6.34 5 5.68 5 5 5 C4.67 5.66 4.34 6.32 4 7 C4 6.34 4 5.68 4 5 C3.34 4.67 2.68 4.34 2 4 C2 3.34 2 2.68 2 2 C1.34 1.34 0.68 0.68 0 0 Z " fill="#8FC4E7" transform="translate(159,19)"/>
<path d="M0 0 C2.31 0 4.62 0 7 0 C7 1.65 7 3.3 7 5 C6.34 5 5.68 5 5 5 C4.67 5.99 4.34 6.98 4 8 C3.01 7.34 2.02 6.68 1 6 C1 5.01 1 4.02 1 3 C2.65 3 4.3 3 6 3 C6 2.34 6 1.68 6 1 C4.02 1 2.04 1 0 1 C0 0.67 0 0.34 0 0 Z " fill="#616398" transform="translate(30,10)"/>
<path d="M0 0 C3 1 3 1 4 3 C4.33 2.01 4.66 1.02 5 0 C5.66 0 6.32 0 7 0 C6.50168276 3.68754757 5.89932357 5.60490662 3 8 C0 2.25 0 2.25 0 0 Z " fill="#5D5A5B" transform="translate(220,11)"/>
<path d="M0 0 C1.32 0 2.64 0 4 0 C3.34 2.97 2.68 5.94 2 9 C0 7 0 7 -0.125 3.375 C-0.08375 2.26125 -0.0425 1.1475 0 0 Z " fill="#E7E9F3" transform="translate(22,11)"/>
<path d="M0 0 C1.4540625 0.0309375 1.4540625 0.0309375 2.9375 0.0625 C3.2675 1.3825 3.5975 2.7025 3.9375 4.0625 C2.6175 4.0625 1.2975 4.0625 -0.0625 4.0625 C-0.0625 3.0725 -0.0625 2.0825 -0.0625 1.0625 C-0.7225 1.0625 -1.3825 1.0625 -2.0625 1.0625 C-2.3925 2.3825 -2.7225 3.7025 -3.0625 5.0625 C-3.625 3.125 -3.625 3.125 -4.0625 1.0625 C-3.0625 0.0625 -3.0625 0.0625 0 0 Z " fill="#5097D1" transform="translate(159.0625,10.9375)"/>
<path d="M0 0 C0.66 0 1.32 0 2 0 C2 0.66 2 1.32 2 2 C2.99 2.33 3.98 2.66 5 3 C1.18483536 4.30062431 -2.27561763 3.89369853 -6.25 3.5625 C-7.51328125 3.46066406 -8.7765625 3.35882812 -10.078125 3.25390625 C-11.52445313 3.12822266 -11.52445313 3.12822266 -13 3 C-13 2.67 -13 2.34 -13 2 C-8.71 2 -4.42 2 0 2 C0 1.34 0 0.68 0 0 Z " fill="#1271C5" transform="translate(151,24)"/>
<path d="M0 0 C2.125 0.375 2.125 0.375 4 1 C3.01 1.33 2.02 1.66 1 2 C1 3.32 1 4.64 1 6 C1.99 6.66 2.98 7.32 4 8 C1.69 7.67 -0.62 7.34 -3 7 C-2.25 2.25 -2.25 2.25 0 0 Z " fill="#5C595A" transform="translate(207,11)"/>
<path d="M0 0 C1.32 0.33 2.64 0.66 4 1 C3.34 1 2.68 1 2 1 C2 1.66 2 2.32 2 3 C2.66 3.33 3.32 3.66 4 4 C3.34 4 2.68 4 2 4 C2 4.99 2 5.98 2 7 C2.66 7.33 3.32 7.66 4 8 C2.68 8 1.36 8 0 8 C0 5.36 0 2.72 0 0 Z " fill="#585858" transform="translate(228,11)"/>
<path d="M0 0 C0.33 0.66 0.66 1.32 1 2 C1.99 2 2.98 2 4 2 C4 3.65 4 5.3 4 7 C3.01 7 2.02 7 1 7 C1 6.01 1 5.02 1 4 C0.34 4 -0.32 4 -1 4 C-0.67 2.68 -0.34 1.36 0 0 Z " fill="#A0A2BE" transform="translate(40,13)"/>
<path d="M0 0 C0.66 0 1.32 0 2 0 C2 2.64 2 5.28 2 8 C0.68 8.33 -0.64 8.66 -2 9 C-2.33 8.34 -2.66 7.68 -3 7 C-1.68 7 -0.36 7 1 7 C0.4740625 5.824375 0.4740625 5.824375 -0.0625 4.625 C-0.371875 3.75875 -0.68125 2.8925 -1 2 C-0.67 1.34 -0.34 0.68 0 0 Z " fill="#F3F0EA" transform="translate(239,13)"/>
<path d="M0 0 C1.32 0 2.64 0 4 0 C4 1.65 4 3.3 4 5 C2.68 4.67 1.36 4.34 0 4 C0 2.68 0 1.36 0 0 Z " fill="#5D9CCF" transform="translate(139,20)"/>
<path d="M0 0 C0.66 0 1.32 0 2 0 C2.125 2.875 2.125 2.875 2 6 C0 8 0 8 -2.625 8.125 C-3.40875 8.08375 -4.1925 8.0425 -5 8 C-4.175 7.236875 -3.35 6.47375 -2.5 5.6875 C0.34055197 3.24565858 0.34055197 3.24565858 0 0 Z " fill="#EC9C4E" transform="translate(218,11)"/>
<path d="M0 0 C0.66 0.33 1.32 0.66 2 1 C0.35 2.32 -1.3 3.64 -3 5 C-4.32 4.34 -5.64 3.68 -7 3 C-4.69631264 1.93347808 -2.35981813 0.93578995 0 0 Z " fill="#EF9B51" transform="translate(226,27)"/>
</svg>
